<?xml version="1.0" standalone="no"?><!-- Generator: Gravit.io --><svg xmlns="http://www.w3.org/2000/svg" xmlns:xlink="http://www.w3.org/1999/xlink" style="isolation:isolate" viewBox="0 0 1120.547 1131.067" width="1120.547" height="1131.067"><defs><clipPath id="_clipPath_yI2nhM1Dk2PdmO5Mw4NJOYbCuS3mTA3Y"><rect width="1120.547" height="1131.067"/></clipPath></defs><g clip-path="url(#_clipPath_yI2nhM1Dk2PdmO5Mw4NJOYbCuS3mTA3Y)"><path d=" M 834.151 35.867 L 814.818 71.733 L 805.885 67.2 C 723.218 25.6 618.151 5.2 522.151 12.133 C 321.885 26.267 147.085 143.2 58.285 322.133 C -8.115 456.133 -18.249 611.067 30.285 752.8 C 96.551 946.667 262.818 1088.4 464.818 1123.333 C 498.951 1129.2 522.685 1131.067 560.818 1131.067 C 609.218 1131.067 648.951 1126.533 692.151 1116 C 843.085 1079.067 971.751 982.133 1047.751 848 C 1085.085 782.267 1108.285 710.667 1117.485 632.667 C 1120.418 608.133 1121.485 559.733 1119.618 534 C 1116.551 492.533 1109.085 449.867 1098.551 414.133 C 1098.018 412.267 1097.085 411.867 1094.018 412.533 C 1090.151 413.333 940.418 457.467 939.751 458 C 939.618 458.133 941.485 466.933 944.151 477.467 C 956.818 529.067 958.818 584.133 950.151 636 C 932.551 739.867 874.951 832 789.351 893.067 C 735.618 931.333 672.551 955.6 604.151 964.133 C 584.285 966.667 533.218 966.267 512.818 963.467 C 464.285 956.933 422.951 944.267 382.151 923.6 C 280.018 872 204.018 776.667 176.951 666.267 C 158.818 592.667 161.618 519.333 185.485 447.333 C 205.751 385.6 237.885 334.533 285.751 288 C 317.885 256.667 346.818 236.133 386.818 216.667 C 446.418 187.333 506.551 174.4 572.818 176.4 C 619.218 177.867 662.951 186.8 706.151 203.867 C 711.885 206.133 733.218 215.6 735.218 216.8 C 735.351 216.933 726.818 233.067 716.151 252.667 C 705.485 272.267 696.951 288.533 697.218 288.8 C 697.485 289.2 919.618 224.133 920.551 223.333 C 921.085 222.8 855.085 0 854.285 0 C 853.885 0 844.818 16.133 834.151 35.867 Z " fill="rgb(0,0,0)"/></g></svg>